<svg version="1.1" id="Layer_1" xmlns="http://www.w3.org/2000/svg" xmlns:xlink="http://www.w3.org/1999/xlink" x="0px" y="0px"
	 width="100%" viewBox="0 0 1024 1024" enable-background="new 0 0 1024 1024" xml:space="preserve">
<path fill="#e6d6b5" opacity="1.000000" stroke="none" 
	d="
M1.000000,410.468658 
	C13.118068,393.640961 29.701820,391.890930 48.663746,393.150604 
	C77.870132,395.090851 107.215019,395.847565 136.525269,393.952087 
	C142.670303,393.554688 148.865112,393.931519 155.011124,393.542725 
	C158.792908,393.303497 159.815796,395.294189 159.652573,398.262848 
	C159.487549,401.263794 159.982025,405.001801 155.252106,405.278564 
	C150.102936,405.579834 144.957977,405.991425 139.804779,406.179443 
	C113.839851,407.127136 87.873978,407.697876 61.918819,405.886078 
	C60.735607,405.803497 59.576660,405.713867 58.706711,406.762146 
	C57.897305,408.305664 58.981739,409.339600 59.820648,410.284393 
	C72.584396,424.658447 78.068520,442.194305 81.341301,460.568848 
	C85.194359,482.201324 87.005783,504.024750 87.467743,526.023071 
	C87.967178,549.805664 88.802559,573.609009 90.478088,597.333557 
	C94.178604,649.730774 102.512711,701.355286 120.532768,750.921448 
	C133.727295,787.214355 150.024353,822.023438 175.300705,851.823547 
	C183.022217,860.926941 191.931976,868.727905 203.309006,873.003967 
	C214.525238,877.219543 224.298828,873.260986 229.730042,862.694214 
	C239.345825,843.986145 231.899689,818.477478 213.699036,808.029419 
	C208.184769,804.864014 202.333038,803.186951 196.019012,805.490417 
	C192.108353,806.917114 188.789474,806.152954 187.355972,802.229492 
	C185.915146,798.285950 188.514709,795.461121 191.789856,793.800720 
	C196.625916,791.348999 202.077042,791.203491 207.346039,790.722595 
	C229.525162,788.698120 251.721558,786.863770 273.907562,784.913513 
	C289.633728,783.531128 305.365234,782.192505 321.072845,780.619995 
	C338.761841,778.849060 356.431000,776.875671 374.100891,774.919128 
	C389.451965,773.219299 404.817505,771.615112 420.130035,769.612244 
	C436.920166,767.416138 453.670441,764.900574 470.409637,762.338379 
	C476.497528,761.406433 477.138947,759.844116 473.759857,754.958801 
	C450.974121,722.016479 439.007019,684.786926 430.706573,646.139709 
	C425.680450,622.737854 422.393402,599.035034 419.970337,575.244263 
	C418.370697,559.538025 417.835358,543.725830 416.647736,527.974365 
	C415.286102,509.915497 414.115112,491.843506 412.055328,473.836548 
	C410.277100,458.291626 408.218048,442.823639 403.575226,427.833923 
	C401.406097,420.830750 398.911163,413.957214 393.900146,408.293671 
	C388.932617,402.679291 382.728302,400.773499 375.489990,401.567169 
	C374.500732,401.675598 373.535583,402.086700 372.549683,402.127777 
	C369.454895,402.256683 365.422791,403.758331 363.607574,401.033600 
	C361.684174,398.146484 365.190521,394.994141 365.825470,391.820770 
	C366.079376,390.551727 367.222137,389.870392 368.448761,389.872040 
	C378.162323,389.885101 388.181854,387.773743 396.956696,394.213684 
	C402.312561,398.144409 406.489716,403.023499 409.354889,408.976501 
	C416.656189,424.146454 419.950134,440.444458 422.274841,456.934479 
	C425.546753,480.143036 426.905334,503.530060 428.485443,526.905151 
	C430.356232,554.580750 432.172546,582.287903 436.390320,609.741638 
	C442.626068,650.330383 451.787018,690.069031 471.086273,726.804016 
	C475.907043,735.979980 481.727142,744.476318 487.830597,752.824219 
	C490.976776,757.127258 494.639679,758.285645 499.885345,757.282837 
	C508.185577,755.696167 516.493774,754.121216 524.998474,753.543945 
	C539.888977,752.533386 550.996704,758.947876 560.135132,769.936646 
	C568.788696,780.342285 574.484314,792.206909 575.034729,805.735535 
	C575.951416,828.267029 562.027893,848.033020 539.609070,852.333374 
	C531.050903,853.974976 522.344849,853.757751 513.731934,854.072510 
	C478.966187,855.343079 444.317657,858.189636 409.717468,861.522522 
	C381.763306,864.215210 353.937805,868.111389 326.109985,871.965820 
	C293.346893,876.503723 260.720520,881.857910 228.087936,887.191406 
	C203.204315,891.258484 184.531494,880.506958 168.524216,862.933777 
	C146.189270,838.413879 131.699600,809.212463 118.685265,779.176147 
	C101.383163,739.243896 90.967285,697.375793 84.598572,654.453552 
	C80.691521,628.121765 78.404808,601.633667 77.572792,575.004089 
	C76.902390,553.546631 75.551071,532.111267 74.713333,510.657776 
	C74.476112,504.583099 70.228249,506.113708 67.219734,506.568512 
	C58.517174,507.884003 49.709389,509.093048 41.283825,511.524994 
	C25.184193,516.171936 12.911575,511.251923 3.204345,498.251038 
	C2.710399,497.589447 2.077199,497.031830 1.254412,496.212891 
	C1.000000,467.645782 1.000000,439.291534 1.000000,410.468658 
M488.191376,843.623535 
	C502.127136,842.398621 516.088135,841.796631 530.078369,841.613464 
	C546.078674,841.404053 559.342163,830.241333 561.711365,814.392578 
	C564.479248,795.877014 557.093018,781.204529 542.733032,769.944580 
	C537.456177,765.806824 530.803162,764.362244 524.220703,765.551147 
	C497.406830,770.394165 470.530975,774.819641 443.597473,778.948975 
	C419.434265,782.653503 395.193451,785.683472 370.896790,788.272095 
	C352.544189,790.227478 334.148499,791.777588 315.774292,793.531738 
	C295.583069,795.459290 275.396515,797.435913 255.203705,799.346741 
	C246.174194,800.201111 237.134399,800.946838 227.248688,801.816772 
	C247.945648,822.896667 251.236176,846.239685 238.561111,872.754883 
	C248.530441,871.239258 257.006073,869.906677 265.495514,868.668762 
	C287.839569,865.410278 310.165527,862.013062 332.544464,859.012756 
	C352.625305,856.320374 372.752167,853.950195 392.886871,851.688232 
	C407.411072,850.056702 421.984528,848.867065 436.530457,847.424255 
	C453.406067,845.750244 470.290009,844.206482 488.191376,843.623535 
M48.272934,416.225098 
	C46.953304,414.958069 45.697247,413.615997 44.304016,412.435883 
	C32.927670,402.799622 19.999987,404.752441 11.984799,417.314484 
	C11.002954,418.853302 10.046630,420.433716 9.302949,422.095306 
	C0.820359,441.047485 0.340817,460.267365 7.490304,479.718353 
	C9.942265,486.389160 13.468326,492.382935 19.122047,496.825165 
	C28.025831,503.820953 37.220520,501.010529 40.548618,490.206970 
	C43.339172,481.148254 41.213608,472.471405 37.781418,464.005341 
	C35.831409,459.195251 32.670750,455.072296 30.129807,450.600342 
	C26.163435,443.619659 29.014500,438.744690 36.915596,438.678558 
	C43.402760,438.624268 49.891731,438.789978 56.378956,438.738525 
	C61.281384,438.699646 62.147472,437.432465 60.151787,433.031158 
	C57.375721,426.908813 53.167324,421.741760 48.272934,416.225098 
M70.463730,467.969177 
	C69.583420,463.913727 68.687836,459.861542 67.830750,455.801178 
	C67.512665,454.294281 67.209053,452.532349 65.405205,452.442627 
	C59.204754,452.134216 52.989140,450.401459 46.605644,452.069366 
	C46.912098,453.251465 47.023529,454.092377 47.341454,454.846191 
	C52.390041,466.816711 55.799603,478.974030 52.668358,492.159302 
	C51.923027,495.297791 54.387093,495.662659 56.797916,495.312347 
	C60.411968,494.787231 64.009857,494.151489 67.622330,493.614685 
	C71.087654,493.099762 73.140778,491.441589 72.710449,487.635803 
	C72.001762,481.368225 71.296867,475.100189 70.463730,467.969177 
z"/>
<path fill="#e6d6b5" opacity="1.000000" stroke="none" 
	d="
M345.439819,158.618286 
	C354.016968,137.866302 369.487762,123.616791 387.070862,111.415726 
	C414.247345,92.557678 444.367371,79.647644 475.393738,68.682617 
	C482.094574,66.314491 488.843903,64.083672 495.811768,61.707458 
	C497.357697,68.436905 495.654785,74.512779 495.117950,80.531807 
	C494.160278,91.269936 492.478363,101.944893 489.971466,112.473785 
	C488.301666,119.486931 485.023926,125.481392 479.953064,130.566299 
	C478.359680,132.164124 476.931580,133.926758 475.347015,135.704559 
	C478.429840,137.961700 480.957886,135.278915 483.739197,135.952881 
	C475.767914,170.020905 451.147766,187.941803 421.641083,201.412292 
	C428.899139,201.475220 435.573425,199.716110 442.104370,197.570694 
	C448.652771,195.419556 455.034760,192.761902 462.822266,189.823395 
	C450.444305,239.042206 424.977020,276.588623 378.673248,298.531464 
	C379.276642,299.197083 379.880005,299.862732 380.483398,300.528351 
	C394.107056,298.235718 406.074585,291.307343 418.922913,286.045929 
	C398.491974,349.892975 355.287933,391.124481 291.685333,412.280121 
	C292.190948,413.058594 292.696564,413.837067 293.202148,414.615540 
	C312.649109,410.260559 331.441162,402.749451 352.183075,401.040466 
	C327.331421,449.006531 291.614136,484.219849 241.120651,503.821045 
	C255.055542,502.113892 268.552917,499.751404 282.606171,495.718842 
	C280.518280,500.462738 277.292816,502.873535 274.310547,505.317169 
	C261.396332,515.898804 247.135880,523.912781 230.607712,527.387634 
	C229.959457,527.523926 229.303131,527.687317 228.697556,527.947449 
	C227.421326,528.495728 225.365692,528.179504 225.382324,530.302551 
	C225.397598,532.249268 227.095978,532.472412 228.575439,532.821960 
	C232.749268,533.808105 236.915985,534.824402 241.124664,535.838196 
	C240.901016,537.898865 239.410568,537.966431 238.285950,538.407288 
	C226.176437,543.154602 213.673996,546.598389 200.979843,549.318726 
	C197.046509,550.161621 194.713242,551.814880 193.256729,555.882690 
	C185.456741,577.666809 178.054871,599.564941 172.146606,621.949646 
	C171.641129,623.864746 171.032639,625.759888 169.699173,627.360901 
	C155.311172,644.635559 142.151108,662.904480 127.270020,679.781860 
	C126.520485,680.631958 125.976547,681.663330 124.761391,682.274292 
	C123.565010,676.844727 124.958008,671.912109 126.007462,667.116333 
	C133.374619,633.449951 143.095840,600.439636 154.469910,567.918701 
	C158.863449,555.356628 163.504868,542.879883 168.161835,530.412231 
	C169.323578,527.302002 169.366333,524.583435 168.211395,521.337463 
	C163.168060,507.163086 160.769470,492.441589 159.567444,477.458282 
	C158.766632,467.475922 158.096085,457.557220 159.613678,447.589447 
	C160.067535,444.608429 160.808563,441.800110 162.332321,438.469574 
	C166.136047,445.291901 167.596405,452.588043 172.596893,458.388977 
	C166.676437,426.458832 166.512344,395.117065 181.009781,364.956543 
	C183.116547,379.691132 184.927811,394.445923 189.910263,409.747131 
	C191.179855,402.949463 190.042297,397.356079 189.411942,391.921936 
	C186.945145,370.657074 191.529617,350.529419 198.441513,330.755249 
	C208.066971,303.217926 221.326385,277.551910 239.003677,254.272446 
	C243.214172,248.727615 247.530121,243.221512 254.309586,237.936279 
	C253.737442,249.800827 252.189682,260.559113 254.223969,271.234680 
	C256.401917,267.137817 256.342560,262.628418 257.161926,258.322754 
	C262.100189,232.373459 274.998932,210.526642 291.684845,190.558594 
	C306.396973,172.952576 322.808716,157.194702 341.611481,143.995544 
	C342.592346,143.307022 343.359589,141.878082 345.538544,142.606613 
	C338.868958,155.474976 336.341797,169.252563 335.748871,183.441757 
	C336.213165,183.587448 336.677460,183.733124 337.141724,183.878799 
	C339.859589,175.579132 342.577423,167.279465 345.439819,158.618286 
M174.543289,569.186523 
	C176.682297,563.062866 178.652725,556.874146 180.987381,550.825989 
	C197.478363,508.104858 215.785843,466.167999 235.261047,424.724548 
	C269.647522,351.549622 310.387085,282.157043 358.536194,217.177734 
	C381.841400,185.726379 406.060242,154.995651 432.327484,125.926727 
	C434.033173,124.039108 436.469055,122.326111 436.357941,119.069054 
	C434.248688,119.299950 433.410126,120.676910 432.390167,121.696815 
	C421.082397,133.003891 409.866211,144.382767 399.384460,156.492294 
	C347.045654,216.959106 303.658020,283.580872 264.419189,353.010254 
	C233.919769,406.975922 207.543671,462.994690 183.197189,519.967712 
	C168.602005,554.121765 155.356354,588.769653 147.105087,625.116577 
	C146.684128,626.970825 145.422897,628.869019 148.025833,630.933655 
	C152.778015,625.977966 158.417603,621.812378 160.439774,614.742737 
	C164.740051,599.708801 168.990250,584.660645 174.543289,569.186523 
z"/>
<path fill="#e6d6b5" opacity="1.000000" stroke="none" 
	d="
M534.851074,594.908447 
	C545.601135,575.689209 555.896912,556.642578 565.504456,537.233582 
	C569.158142,529.852478 568.330750,528.125793 560.119934,527.547302 
	C533.858398,525.697021 510.655762,532.486877 492.306854,552.386902 
	C489.826233,555.077148 487.480865,557.922058 483.406067,558.304688 
	C475.500702,559.046936 469.633026,552.391724 470.751923,543.569336 
	C472.696960,528.232788 478.598755,514.048462 483.950653,499.730072 
	C485.279083,496.175964 488.294037,494.661621 492.303619,494.609131 
	C500.337646,494.504028 508.220734,495.856262 516.113708,496.858551 
	C528.866943,498.478027 541.640564,498.849152 554.460388,498.915771 
	C574.280151,499.018799 594.036682,498.435242 613.605591,494.848114 
	C616.029663,494.403809 618.600342,494.561066 621.088501,494.700317 
	C629.623108,495.177856 634.582092,502.941620 630.911865,510.606384 
	C625.520142,521.866028 619.972046,533.066528 614.038574,544.048035 
	C594.009949,581.116455 573.747620,618.058533 553.669189,655.100159 
	C550.819275,660.357849 548.467041,665.887268 545.933105,671.313599 
	C544.464966,674.457520 545.426819,676.487671 548.904236,677.089233 
	C576.812622,681.917603 603.466919,679.148682 620.319153,650.791138 
	C621.167847,649.363037 622.084656,647.951782 623.142395,646.675781 
	C626.773071,642.296021 632.656006,642.550110 635.831482,647.255310 
	C638.067078,650.567871 638.924561,654.253113 638.003906,658.208679 
	C634.803040,671.961975 631.580322,685.710266 628.326050,699.451050 
	C627.905640,701.226318 627.316772,702.969666 626.695557,704.687866 
	C622.876770,715.248230 616.417664,718.905945 605.358887,716.808472 
	C581.811035,712.342224 558.160034,709.121704 534.095703,709.148560 
	C521.868469,709.162231 509.858734,710.409668 497.918884,712.717712 
	C495.262665,713.231140 492.638428,713.361450 489.980072,713.361633 
	C480.293396,713.362427 475.683777,707.492004 478.124542,697.973633 
	C479.662628,691.975403 482.404572,686.420593 485.469727,681.063110 
	C501.846802,652.438110 518.270081,623.839539 534.851074,594.908447 
z"/>
<path fill="#e6d6b5" opacity="1.000000" stroke="none" 
	d="
M786.670837,320.638092 
	C793.820862,314.601410 800.950378,309.124329 808.339905,303.978424 
	C816.516174,298.284760 824.944336,297.100159 834.237732,301.416962 
	C842.218445,305.124054 849.970947,309.362274 858.564270,311.759613 
	C864.423645,313.394257 869.374634,312.251801 874.080322,308.823883 
	C876.770447,306.864258 879.287598,304.600800 882.169128,302.985138 
	C887.048645,300.249146 890.722290,302.756195 890.558594,308.248260 
	C890.447083,311.989197 889.594543,315.542511 888.091125,318.876709 
	C881.445557,333.614777 880.725464,349.437408 879.310913,365.157959 
	C877.482727,385.474426 878.829041,405.785767 879.474731,426.081665 
	C879.774841,435.515564 880.866821,444.999725 882.522400,454.296844 
	C884.837158,467.295197 881.232056,478.407715 873.164673,488.248962 
	C860.819885,503.308044 846.078308,515.092163 827.405762,521.736084 
	C806.644165,529.123291 781.064331,516.213745 771.274780,504.418579 
	C762.670532,494.051636 763.934753,481.039490 773.983521,471.884918 
	C777.677551,468.519623 781.519226,465.316772 785.231201,461.970703 
	C789.554382,458.073761 789.620911,457.194153 785.193604,453.422913 
	C770.648804,441.033325 760.499084,425.813995 756.805542,406.996674 
	C750.375244,374.237091 759.267029,346.136230 783.809692,323.221497 
	C784.662231,322.425507 785.538330,321.654694 786.670837,320.638092 
M838.657654,405.231995 
	C838.655151,392.252502 839.043091,379.257233 838.518494,366.298889 
	C838.143311,357.030487 838.829773,347.577454 836.589661,338.514496 
	C834.282654,329.180725 826.796692,325.738495 818.018555,324.410522 
	C811.269226,323.389435 809.248596,328.945129 806.629944,333.034119 
	C799.084839,344.815643 796.285034,358.159973 795.466309,371.880280 
	C794.542236,387.366852 797.655457,401.974091 806.654419,414.962006 
	C812.383057,423.229980 822.007202,427.405884 828.755737,424.362152 
	C836.581848,420.832367 838.072815,413.708984 838.657654,405.231995 
M815.295044,484.255798 
	C820.981628,485.762177 826.781372,485.918457 832.616272,485.759918 
	C843.202026,485.472198 848.444702,478.356598 845.583374,468.075775 
	C843.313232,459.919250 841.015503,451.770447 838.721741,443.620544 
	C838.191040,441.735168 837.968933,439.709778 836.525146,438.294281 
	C835.269653,438.127930 834.466125,438.805939 833.740112,439.453644 
	C826.413696,445.989777 819.077454,452.515961 811.830811,459.139923 
	C809.112183,461.624939 807.014465,464.675873 805.331604,467.937531 
	C801.835999,474.712799 803.439209,479.329834 810.307373,482.523560 
	C811.652222,483.148895 813.126953,483.494629 815.295044,484.255798 
z"/>
<path fill="#e6d6b5" opacity="1.000000" stroke="none" 
	d="
M510.109222,455.347900 
	C498.777161,455.571991 488.203247,457.913483 477.557617,459.705688 
	C473.182648,460.442200 469.582642,459.227692 467.095123,455.560852 
	C463.931427,450.897339 465.308411,444.957031 470.730164,443.269775 
	C481.218567,440.005829 483.976593,432.191315 484.707764,422.615417 
	C486.917450,393.675934 485.451843,364.692780 485.762878,335.731567 
	C485.961395,317.243134 485.779846,298.749603 485.649994,280.259186 
	C485.592407,272.058014 483.103607,265.069122 475.937836,260.020844 
	C470.417755,256.131927 469.342102,251.964294 471.610687,247.657669 
	C474.008606,243.105606 478.791138,241.603806 485.098236,243.597275 
	C487.949554,244.498474 490.886749,245.369522 493.476257,246.809479 
	C499.905304,250.384537 506.008453,249.808380 512.519958,246.830368 
	C526.506470,240.433701 540.940735,234.739456 556.615845,235.841812 
	C588.817688,238.106415 613.394348,256.140259 619.448608,290.754089 
	C628.066223,340.023956 589.289001,373.940033 553.871338,380.311096 
	C548.650879,381.250122 543.354004,381.836517 538.068237,382.321198 
	C532.067749,382.871460 530.373779,384.412720 530.379150,390.334961 
	C530.389099,401.315735 530.603271,412.300476 532.352783,423.166046 
	C533.489258,430.223907 537.570068,434.850922 544.610596,436.763916 
	C546.688416,437.328491 548.715393,438.147491 550.684509,439.030823 
	C554.576416,440.776733 558.431213,442.739685 557.893005,447.969360 
	C557.416992,452.594757 552.819397,457.357391 548.207764,458.303650 
	C543.720154,459.224457 539.253723,458.594116 534.817993,457.910828 
	C526.777344,456.672211 518.781677,455.062134 510.109222,455.347900 
M531.423645,274.179749 
	C531.061340,279.829712 530.430969,285.477509 530.384644,291.130066 
	C530.212402,312.119049 530.104919,333.110687 531.235840,354.084717 
	C531.531982,359.576904 533.102722,361.050934 538.717346,360.767822 
	C552.343811,360.080780 565.328369,349.753815 569.475830,335.283508 
	C574.582214,317.467346 574.200134,299.459442 569.176941,281.645081 
	C567.590149,276.017670 564.966492,270.778259 560.339600,266.818512 
	C550.064026,258.024689 534.960205,261.426849 531.423645,274.179749 
z"/>
<path fill="#e6d6b5" opacity="1.000000" stroke="none" 
	d="
M199.649353,650.016113 
	C200.264191,638.887939 197.788940,628.285461 199.561584,617.611633 
	C200.272598,613.330444 202.067398,610.223022 205.659073,607.864929 
	C227.798416,593.329407 249.996048,578.878845 271.967651,564.092957 
	C284.424255,555.710266 295.889709,553.790771 309.578369,562.880737 
	C330.503113,576.775879 352.488556,589.096680 374.243103,601.707336 
	C382.367096,606.416565 385.611908,612.600098 385.522064,622.037476 
	C385.298462,645.516052 386.627106,668.990051 386.421448,692.485962 
	C386.343964,701.342712 382.954346,708.072815 375.347260,712.314819 
	C351.902069,725.388977 329.391052,739.917542 307.265839,755.091492 
	C296.623810,762.390076 286.045532,761.673462 275.139282,754.710327 
	C256.334442,742.704285 237.162643,731.273071 218.143173,719.603271 
	C217.575562,719.255066 217.014191,718.880859 216.408096,718.613403 
	C205.009720,713.583801 200.360107,704.934570 200.662216,692.447632 
	C201.000031,678.485718 200.043152,664.492554 199.649353,650.016113 
M278.835541,733.664612 
	C282.109894,737.216431 285.435944,740.722229 288.647552,744.329895 
	C294.848999,751.295959 297.180206,751.461243 304.202545,744.998108 
	C312.290741,737.554016 320.300995,730.025269 328.358124,722.547363 
	C333.727692,717.563721 339.153931,712.640686 344.488159,707.619629 
	C347.219604,705.048645 348.594391,702.182129 346.834381,698.261230 
	C336.338257,674.877747 325.966705,651.438354 315.505829,628.038940 
	C314.857758,626.589355 314.324493,624.840576 311.391602,624.377625 
	C292.499298,648.987488 275.815552,675.571350 257.611847,702.555115 
	C279.753540,703.033142 300.337952,703.223694 320.851013,705.606140 
	C301.290009,711.269226 281.008209,710.092407 259.753387,711.833862 
	C266.088684,720.182617 272.385345,726.529785 278.835541,733.664612 
M271.127777,616.841553 
	C251.935577,617.886597 232.688782,618.051392 212.619904,619.869263 
	C223.518814,646.450562 237.076218,670.782043 249.001495,697.048096 
	C252.390762,692.017761 255.136368,687.907410 257.917328,683.821228 
	C271.960297,663.186951 286.010101,642.557434 300.066681,621.932434 
	C301.005188,620.555359 302.231354,619.226624 301.463898,617.416321 
	C300.835297,615.933655 299.340668,615.959290 298.011536,615.993286 
	C289.359955,616.214111 280.709320,616.471680 271.127777,616.841553 
M349.546417,682.643005 
	C350.201263,683.494446 350.211487,684.997070 351.959564,684.897278 
	C354.165283,682.935791 354.414307,679.998901 355.237396,677.369324 
	C360.646332,660.089478 366.014221,642.796570 371.339691,625.490723 
	C372.945740,620.271606 372.195496,618.654846 367.919067,618.401550 
	C354.807892,617.624878 341.691406,616.913818 328.569366,616.357544 
	C323.241882,616.131714 322.270294,617.474243 324.473480,622.098328 
	C333.783569,641.638672 340.976715,662.048157 349.546417,682.643005 
M227.913544,607.827637 
	C230.361465,609.390869 233.114761,608.769043 235.649033,608.548096 
	C256.154480,606.760681 276.709686,605.809204 297.252380,604.640869 
	C301.579010,604.394897 302.979736,602.473694 301.321564,598.410156 
	C298.122070,590.569580 294.687805,582.822144 291.221252,575.094238 
	C289.402954,571.040710 286.180542,570.484558 282.546356,572.485840 
	C278.765839,574.567688 275.095551,576.861816 271.459961,579.192505 
	C256.929596,588.507385 242.046204,597.276794 227.913544,607.827637 
M227.024246,676.343811 
	C222.046295,665.537659 217.068329,654.731567 211.869675,643.446350 
	C210.889450,644.658508 210.510773,644.908020 210.508759,645.160461 
	C210.374634,661.916992 209.535751,678.692078 211.556808,695.398132 
	C211.851273,697.832092 213.127289,700.167358 215.779739,700.308167 
	C222.990784,700.690979 230.152878,702.503845 237.977478,701.398499 
	C235.271530,692.651184 231.005188,684.963684 227.024246,676.343811 
M319.877167,582.685120 
	C316.536224,580.826843 313.197998,578.963623 309.852844,577.112976 
	C308.669678,576.458435 307.343079,575.749573 306.120789,576.652466 
	C304.783478,577.640320 305.380249,579.046448 305.934418,580.281738 
	C309.131256,587.407166 312.337067,594.528503 315.551727,601.645935 
	C316.352600,603.419006 317.507416,604.558777 319.681915,604.666870 
	C331.124786,605.235779 342.562012,605.917603 354.002106,606.543335 
	C354.879608,606.591370 355.620270,606.269165 356.392273,604.317383 
	C345.184479,596.290955 332.503479,590.220459 319.877167,582.685120 
M376.367279,649.264404 
	C373.536652,648.089722 373.804047,650.764771 373.431702,651.951172 
	C370.943695,659.878601 368.828613,667.924927 366.265259,675.826477 
	C362.012665,688.935242 361.568970,703.665222 350.128906,713.876709 
	C356.686523,711.348267 362.042023,707.167908 367.741058,703.579224 
	C372.953186,700.297180 375.445374,695.254150 375.574982,689.303162 
	C375.861145,676.161133 375.459198,663.003845 376.367279,649.264404 
M259.971985,733.459351 
	C262.540802,734.751648 264.755920,736.838013 268.207092,737.412720 
	C267.431305,734.920044 266.001038,733.549133 264.658997,732.107910 
	C259.447479,726.511108 254.228836,720.920715 249.054214,715.289917 
	C244.328568,710.147644 232.687271,708.378845 225.832977,712.197571 
	C237.173828,719.257019 248.266922,726.162231 259.971985,733.459351 
z"/>
<path fill="#e6d6b5" opacity="1.000000" stroke="none" 
	d="
M736.236572,417.754089 
	C737.324768,424.094391 740.317932,428.547882 745.706909,431.482697 
	C751.335510,434.548035 751.960022,439.626038 747.324707,444.021179 
	C742.132080,448.944611 736.865540,453.794830 731.510315,458.540497 
	C726.311951,463.147064 720.656250,463.562805 713.934265,460.086914 
	C707.435852,456.726624 703.158569,451.413574 700.144226,444.837524 
	C697.275146,438.578339 696.822754,438.589081 691.253479,442.841919 
	C685.964478,446.880768 680.733826,450.981506 675.282532,454.824493 
	C658.975342,466.320526 644.145325,460.287384 633.913086,448.003265 
	C618.776917,429.832123 617.675110,404.128693 631.237610,386.052399 
	C638.148621,376.841339 647.794617,371.273712 658.212769,366.924011 
	C668.498169,362.629700 678.833008,358.453918 689.121155,354.165955 
	C697.084534,350.846893 699.183228,344.838440 694.473022,337.632050 
	C689.997559,330.784668 683.081055,326.937592 675.444153,324.725861 
	C671.928528,323.707672 669.133667,326.011047 667.216614,329.104919 
	C664.100464,334.134094 662.386780,339.632751 661.280457,345.410492 
	C658.964233,357.507233 651.302063,362.873291 639.050781,361.175110 
	C631.936096,360.188934 628.107483,352.940094 630.124695,344.522736 
	C632.358948,335.199768 638.039368,328.110046 644.857666,321.834229 
	C650.857910,316.311371 656.860901,310.737671 663.315735,305.775787 
	C671.998108,299.101624 681.769226,296.972870 692.445435,300.723755 
	C703.507202,304.610138 713.478394,310.705139 723.776733,316.126648 
	C727.482666,318.077606 730.822327,319.044525 735.072571,317.325592 
	C740.127808,315.281097 743.019226,317.652100 743.353027,323.078247 
	C743.532654,325.997986 742.752991,328.688721 741.713562,331.321625 
	C736.872131,343.585419 735.810120,356.514496 735.435608,369.462982 
	C735.045715,382.941559 735.307312,396.440430 735.387024,409.929810 
	C735.401611,412.400574 735.909058,414.868469 736.236572,417.754089 
M695.298035,373.683563 
	C693.836365,371.684509 692.084412,372.454987 690.391418,373.225677 
	C684.785461,375.777588 679.143860,378.257050 674.011597,381.732727 
	C661.357788,390.302155 658.252563,407.531860 667.135498,420.039185 
	C671.314575,425.923248 676.558289,427.910522 683.174805,426.117706 
	C690.520325,424.127350 694.764099,419.054291 695.737061,412.300964 
	C697.560364,399.644867 696.327332,387.055389 695.298035,373.683563 
z"/>
<path fill="#e6d6b5" opacity="1.000000" stroke="none" 
	d="
M1008.293945,643.920654 
	C1004.723267,668.685974 993.162842,688.311096 974.446960,704.231934 
	C952.829956,722.620789 931.069641,720.387329 910.069458,703.991760 
	C894.471130,691.813599 886.058472,675.019470 883.037476,655.893372 
	C878.224670,625.422668 885.598633,598.026611 906.593262,574.941040 
	C915.753113,564.868774 927.389893,558.452087 940.216309,554.099854 
	C948.115417,551.419617 955.751099,552.596680 963.028687,555.993286 
	C988.555420,567.907166 1002.662354,588.648132 1008.289734,615.655334 
	C1010.209839,624.870300 1009.574097,634.201416 1008.293945,643.920654 
M967.780762,625.533508 
	C965.869751,614.703979 961.641418,604.810974 955.291077,595.891602 
	C951.486633,590.548035 946.706116,586.215393 940.503601,583.592102 
	C935.666931,581.546509 932.110107,582.924744 929.417297,587.144958 
	C926.715454,591.379272 924.686707,595.920105 923.405640,600.792175 
	C919.757141,614.668091 919.395447,628.726929 921.486633,642.826050 
	C923.408142,655.781128 928.310791,667.550232 937.464294,677.123535 
	C942.585815,682.479980 948.906921,686.409241 956.624268,684.271729 
	C963.704468,682.310669 966.192932,675.912354 967.678223,669.405762 
	C970.943970,655.099243 970.754028,640.726379 967.780762,625.533508 
z"/>
<path fill="#e6d6b5" opacity="1.000000" stroke="none" 
	d="
M744.059937,579.010254 
	C748.543335,585.477417 752.373840,591.916809 755.455933,598.769409 
	C758.754211,606.102722 757.640747,609.975830 750.860229,614.420166 
	C733.451050,625.831360 716.216675,637.511841 698.307129,648.150269 
	C687.908936,654.326904 687.982239,655.419434 694.780579,665.585693 
	C703.099182,678.025269 726.541992,688.226562 743.734924,674.649109 
	C746.077942,672.798889 748.636047,671.171204 751.254883,669.732117 
	C754.887634,667.735779 757.391907,668.974854 758.168152,673.015320 
	C759.081665,677.770386 757.653748,682.001648 754.542419,685.524902 
	C746.047913,695.144043 737.296326,704.523254 727.291382,712.629028 
	C717.951965,720.195557 707.399963,718.269714 697.272766,715.583862 
	C671.702393,708.802368 656.534485,691.253357 649.601807,666.434448 
	C641.596985,637.777405 644.750732,610.476990 663.151733,586.396179 
	C673.464355,572.900391 687.521545,563.278381 702.038635,554.658508 
	C709.173828,550.421753 716.376099,552.616272 722.715881,556.976379 
	C731.165771,562.787720 737.973755,570.333618 744.059937,579.010254 
M690.099792,595.513977 
	C685.883606,607.931641 684.358093,620.769714 683.338928,634.966736 
	C694.961731,627.833069 706.012695,622.160095 715.555725,614.141357 
	C718.268372,611.862000 718.357117,608.374695 717.143005,605.341492 
	C714.294495,598.224976 710.760254,591.430176 705.642395,585.619141 
	C702.057495,581.548645 698.882080,581.568909 695.090942,585.532471 
	C692.595886,588.140930 691.655701,591.558533 690.099792,595.513977 
z"/>
<path fill="#e6d6b5" opacity="1.000000" stroke="none" 
	d="
M1005.446899,418.571259 
	C1006.320374,422.592865 1004.660400,425.493408 1002.511108,428.096344 
	C993.268005,439.290466 983.270935,449.738129 971.766479,458.666504 
	C964.694092,464.155243 956.514893,463.086578 948.736755,461.787872 
	C926.776001,458.121094 911.799072,444.790344 902.429626,425.292328 
	C888.041382,395.350037 889.263184,365.818542 906.854248,337.356598 
	C911.275757,330.202728 917.624939,324.682159 923.926147,319.249878 
	C931.750671,312.504578 940.251038,306.648956 948.914307,301.018494 
	C955.291382,296.873871 961.623047,296.675568 968.195679,300.380615 
	C979.890198,306.972931 987.683167,317.341583 994.947815,328.165527 
	C998.200684,333.012085 1000.500671,338.378479 1002.428955,343.908173 
	C1005.521057,352.775299 1005.004395,354.684662 997.085083,360.099792 
	C989.803467,365.078918 982.536865,370.093964 975.070312,374.785400 
	C964.224609,381.600006 953.218079,388.159454 942.254272,394.784851 
	C936.795288,398.083649 936.544983,398.893188 939.470337,404.624451 
	C946.231812,417.871674 956.147095,426.484863 971.803406,426.642029 
	C977.321777,426.697418 982.205566,424.623962 986.805908,421.823761 
	C990.357178,419.662140 993.731628,417.202118 997.333801,415.134583 
	C1001.072205,412.988800 1004.045532,413.617401 1005.446899,418.571259 
M956.898193,333.587036 
	C949.415588,323.624146 945.025757,324.053955 939.772644,335.268616 
	C939.420166,336.021088 939.089478,336.785583 938.787170,337.559509 
	C935.194824,346.756439 933.517944,356.415527 932.483765,366.143585 
	C932.068237,370.052032 931.310608,374.261749 933.153809,378.721985 
	C943.460205,372.944916 953.397278,367.603058 962.247253,360.512634 
	C965.774658,357.686523 966.445740,353.842651 965.144104,349.677856 
	C963.396301,344.085938 960.833374,338.877197 956.898193,333.587036 
z"/>
<path fill="#e6d6b5" opacity="1.000000" stroke="none" 
	d="
M780.673950,677.507996 
	C780.426453,652.594055 781.513489,628.114502 779.681213,603.672180 
	C779.354187,599.310303 777.611816,596.075806 773.483948,594.246338 
	C771.052307,593.168701 768.619202,592.040100 766.346313,590.669678 
	C761.364868,587.666199 760.284851,581.516113 764.830750,578.168152 
	C776.337891,569.693359 787.983765,561.266418 801.515930,556.175232 
	C806.552185,554.280457 810.138855,557.346252 813.003845,561.101074 
	C815.782166,564.742188 817.029480,569.108093 818.127075,573.466125 
	C818.619690,575.422058 818.958313,577.357178 820.694946,578.982300 
	C823.403931,577.945068 825.019775,575.535522 826.928101,573.560974 
	C831.786743,568.533447 836.382751,563.246399 841.342773,558.324036 
	C847.192871,552.518433 852.155518,551.927917 859.368530,556.044250 
	C862.531555,557.849304 865.402100,560.167908 868.398682,562.263062 
	C871.536133,564.456665 874.694946,566.563538 878.259460,568.085449 
	C884.363281,570.691711 886.613342,575.454590 883.665222,581.371643 
	C877.731079,593.281860 871.469788,605.048035 864.846680,616.588501 
	C861.154175,623.022400 854.330078,622.642822 850.473267,616.249695 
	C849.370117,614.421204 848.699707,612.315552 847.952148,610.292175 
	C846.799316,607.171692 845.749451,604.024292 844.012939,601.145447 
	C841.357422,596.743225 838.295654,592.151001 832.686829,592.631226 
	C827.183533,593.102356 824.507935,598.035522 822.548401,602.690430 
	C817.897095,613.739807 818.295532,625.551880 818.614014,637.124878 
	C818.907043,647.771362 819.296143,658.417358 819.337585,669.070435 
	C819.379028,679.716858 823.087280,687.891968 833.971008,691.424194 
	C835.073181,691.781799 836.112793,692.338623 837.169617,692.828369 
	C845.755615,696.807739 846.610291,702.899170 839.483765,709.254883 
	C835.460815,712.842651 830.840393,713.724182 825.550110,712.960144 
	C816.847900,711.703369 808.165588,710.257202 799.309814,710.205017 
	C792.112549,710.162537 785.051941,710.639221 778.091553,712.613037 
	C774.187439,713.720093 769.671936,714.703735 767.397461,710.276733 
	C765.217407,706.033813 766.849365,701.865723 770.239380,698.518311 
	C776.000977,692.829224 779.370972,685.922729 780.673950,677.507996 
z"/>
<path fill="#e6d6b5" opacity="1.000000" stroke="none" 
	d="
M175.389526,708.793701 
	C167.199814,708.322693 159.622894,710.510559 151.923416,711.605774 
	C148.103561,712.149170 144.319290,712.428711 140.499344,712.366882 
	C132.452026,712.236877 128.087540,706.975708 129.941666,699.230347 
	C131.573166,692.415039 134.426788,686.022400 137.890854,679.911011 
	C139.541977,676.997986 141.998428,675.836670 144.998886,677.102905 
	C148.195572,678.451782 147.819427,681.593140 146.914749,684.030640 
	C145.415558,688.069946 143.212250,691.841919 141.448029,695.790222 
	C138.745712,701.837891 139.992493,703.995605 146.435471,703.583862 
	C154.543610,703.065552 162.636108,702.164917 170.699997,701.148499 
	C174.928574,700.615540 179.046783,700.750366 183.026672,702.073608 
	C188.247437,703.809509 189.529694,708.119629 186.419418,712.646912 
	C182.154251,718.855347 176.767929,724.067993 171.620804,729.511597 
	C163.095551,738.527893 164.521042,743.670532 176.418076,747.473022 
	C185.358688,750.330627 194.643707,751.136719 203.932770,751.605591 
	C214.731766,752.150696 225.548431,752.343323 236.356735,752.709534 
	C237.303955,752.741638 238.367004,752.535828 239.348267,753.962830 
	C235.599609,756.315430 231.282654,756.713806 227.248413,757.095276 
	C209.337448,758.788574 191.404755,759.345154 173.537018,756.362915 
	C168.053894,755.447632 162.881470,753.730469 158.279648,750.568115 
	C153.779343,747.475464 152.150009,742.767151 153.493027,737.545959 
	C155.193420,730.935425 159.313629,726.066589 164.535843,721.980652 
	C168.202347,719.112000 172.177261,716.581970 175.068954,712.855347 
	C175.895523,711.790100 178.209671,710.630859 175.389526,708.793701 
z"/>
<path fill="#e6d6b5" opacity="1.000000" stroke="none" 
	d="
M393.354675,738.105103 
	C399.235229,737.638794 404.585449,737.568604 409.126373,741.932617 
	C389.012054,744.788635 369.011902,747.893921 347.913025,747.234985 
	C349.964050,743.288147 353.140228,743.246765 355.853394,742.720947 
	C368.091827,740.349365 380.472107,739.048645 393.354675,738.105103 
z"/>
</svg>